<svg width="34" height="28" viewBox="0 0 34 28" fill="none" xmlns="http://www.w3.org/2000/svg">
<path d="M0 10.5295C0 8.31716 0 7.21097 0.5192 6.29397C1.0384 5.37696 1.9945 4.8033 3.90669 3.65599C6.61609 2.03034 7.9708 1.21752 8.9854 1.79198C10 2.36644 10 3.93255 10 7.06476V17.4705C10 19.6828 10 20.789 9.4808 21.706C8.9616 22.623 8.0055 23.1967 6.09331 24.344C3.38391 25.9697 2.0292 26.7825 1.0146 26.208C0 25.6336 0 24.0675 0 20.9352V10.5295Z" fill="white"/>
<path d="M24 10.5295C24 8.31716 24 7.21097 24.5192 6.29397C25.0384 5.37696 25.9945 4.8033 27.9067 3.65599C30.6161 2.03034 31.9708 1.21752 32.9854 1.79198C34 2.36644 34 3.93255 34 7.06476V17.4705C34 19.6828 34 20.789 33.4808 21.706C32.9616 22.623 32.0055 23.1967 30.0933 24.344C27.3839 25.9697 26.0292 26.7825 25.0146 26.208C24 25.6336 24 24.0675 24 20.9352V10.5295Z" fill="white"/>
<path d="M12 17.4705C12 19.6828 12 20.789 12.5192 21.706C13.0384 22.623 13.9945 23.1967 15.9067 24.344C18.6161 25.9697 19.9708 26.7825 20.9854 26.208C22 25.6336 22 24.0675 22 20.9352V10.5295C22 8.31716 22 7.21097 21.4808 6.29397C20.9616 5.37696 20.0055 4.8033 18.0933 3.65599C15.3839 2.03034 14.0292 1.21752 13.0146 1.79198C12 2.36644 12 3.93255 12 7.06476V17.4705Z" fill="url(#paint0_linear_519_8019)"/>
<defs>
<linearGradient id="paint0_linear_519_8019" x1="12.5472" y1="13.8534" x2="21.5197" y2="13.8534" gradientUnits="userSpaceOnUse">
<stop stop-color="#2BCBBB"/>
<stop offset="1" stop-color="#2AAFF7"/>
</linearGradient>
</defs>
</svg>
